Coordinates
version=1
nRows=11
nColumns=40
inDegrees=yes

Units are S.I. units (second, meters, Newtons, ...)
If the header above contains a line with 'inDegrees', this indicates whether rotational values are in degrees (yes) or radians (no).

endheader
time	pelvis_tilt	pelvis_list	pelvis_rotation	pelvis_tx	pelvis_ty	pelvis_tz	hip_flexion_r	hip_adduction_r	hip_rotation_r	knee_angle_r	knee_angle_r_beta	ankle_angle_r	subtalar_angle_r	mtp_angle_r	hip_flexion_l	hip_adduction_l	hip_rotation_l	knee_angle_l	knee_angle_l_beta	ankle_angle_l	subtalar_angle_l	mtp_angle_l	lumbar_extension	lumbar_bending	lumbar_rotation	arm_flex_r	arm_add_r	arm_rot_r	elbow_flex_r	pro_sup_r	wrist_flex_r	wrist_dev_r	arm_flex_l	arm_add_l	arm_rot_l	elbow_flex_l	pro_sup_l	wrist_flex_l	wrist_dev_l
      0.97200000	     20.24914130	      3.37571837	      4.38357383	      1.45774395	      0.97695232	     -0.34052969	      2.23510831	     -5.65414798	     -9.29600082	     29.21647034	      0.50992360	     -6.51394432	      0.00000000	      0.00000000	    -28.55457713	      4.33423143	      4.50447224	      9.30099417	      0.16233297	     -4.93438455	      0.00000000	      0.00000000	    -34.02715177	     -1.23888349	     -8.21744419	      0.52009365	    -16.14645669	     10.80096696	     42.13124557	     79.13511564	      0.00000000	      0.00000000	      9.24984095	    -25.76403157	     26.87577618	     52.50379135	     79.24006948	      0.00000000	      0.00000000
      0.97600000	     20.01713049	      3.47731868	      4.29884567	      1.46269490	      0.97584289	     -0.34051576	      2.82819643	     -5.81155525	     -9.62617816	     28.28051114	      0.49358803	     -6.50074270	      0.00000000	      0.00000000	    -28.71560552	      4.46127999	      4.41046695	      9.21993401	      0.16091821	     -4.76179598	      0.00000000	      0.00000000	    -33.83453239	     -1.37359986	     -8.24689334	      0.55419249	    -16.15126677	     10.68806231	     42.07411505	     79.05817803	      0.00000000	      0.00000000	      9.40758183	    -25.80985589	     26.96947936	     52.68089419	     79.25363113	      0.00000000	      0.00000000
      0.98000000	     19.76450291	      3.60441193	      4.25208892	      1.46765497	      0.97475802	     -0.34054334	      3.37755592	     -5.96239770	     -9.89249454	     27.21069108	      0.47491615	     -6.66456734	      0.00000000	      0.00000000	    -28.82868336	      4.61151435	      4.22848150	      9.15592879	      0.15980110	     -4.62383212	      0.00000000	      0.00000000	    -33.63389561	     -1.50184662	     -8.34619370	      0.59778821	    -16.06625443	     10.42367693	     41.98206777	     78.95516229	      0.00000000	      0.00000000	      9.56699627	    -25.81756696	     27.01523354	     52.74121489	     79.25827658	      0.00000000	      0.00000000
      0.98400000	     19.61673742	      3.56981205	      4.31037043	      1.47235917	      0.97392598	     -0.34029300	      3.70558555	     -5.83886648	    -10.08708247	     25.86427559	      0.45141677	     -7.16347444	      0.00000000	      0.00000000	    -28.97125790	      4.53276015	      3.92160496	      9.16913462	      0.16003159	     -4.50375316	      0.00000000	      0.00000000	    -33.58831052	     -1.44983399	     -8.38455699	      0.65821318	    -15.86055633	      9.85328833	     41.81164916	     78.82243629	      0.00000000	      0.00000000	      9.85917149	    -25.87902591	     27.14991708	     52.83018343	     79.25783471	      0.00000000	      0.00000000
      0.98800000	     19.44760828	      3.61852939	      4.32522156	      1.47728651	      0.97292544	     -0.34010502	      4.10606764	     -5.85967728	    -10.40600270	     24.71091312	      0.43128680	     -7.41875174	      0.00000000	      0.00000000	    -29.08397749	      4.54784523	      3.64546864	      9.28272575	      0.16201413	     -4.31466703	      0.00000000	      0.00000000	    -33.46507802	     -1.50270855	     -8.43007140	      0.72475861	    -15.72791241	      9.50686422	     41.62923823	     78.75771667	      0.00000000	      0.00000000	     10.14043887	    -25.91914994	     27.33541165	     52.82451546	     79.22450966	      0.00000000	      0.00000000
      0.99200000	     19.20380348	      3.68678560	      4.25671006	      1.48204564	      0.97187500	     -0.34003008	      4.64476557	     -5.93849548	    -10.55418157	     23.63765198	      0.41255485	     -7.64842151	      0.00000000	      0.00000000	    -29.14120609	      4.63294885	      3.55921904	      9.34167289	      0.16304295	     -4.17213581	      0.00000000	      0.00000000	    -33.30448606	     -1.58460583	     -8.45227663	      0.80942116	    -15.62559802	      9.16974669	     41.49582071	     78.71394313	      0.00000000	      0.00000000	     10.34756819	    -25.93819430	     27.42654384	     52.91420648	     79.15055000	      0.00000000	      0.00000000
      0.99600000	     18.92114026	      3.78551393	      4.17037822	      1.48694258	      0.97048261	     -0.33988048	      5.32932061	     -6.06448350	    -10.92497217	     22.84328635	      0.39869056	     -7.62121421	      0.00000000	      0.00000000	    -29.19138246	      4.76828511	      3.33950120	      9.33610645	      0.16294580	     -3.99659355	      0.00000000	      0.00000000	    -33.06689091	     -1.71665799	     -8.48317104	      0.84677730	    -15.57635029	      8.99008250	     41.43359598	     78.69283286	      0.00000000	      0.00000000	     10.50515579	    -25.97847191	     27.46190711	     53.05288030	     79.12979903	      0.00000000	      0.00000000
      1.00000000	     18.63610121	      3.69683420	      4.20788763	      1.49159938	      0.96927076	     -0.33931566	      5.81140578	     -5.83308673	    -10.99695470	     21.52536843	      0.37568855	     -8.19798400	      0.00000000	      0.00000000	    -29.23545652	      4.63541218	      3.25157553	      9.27628178	      0.16190166	     -3.76021451	      0.00000000	      0.00000000	    -32.87117430	     -1.65535352	     -8.50720751	      1.00301270	    -15.30926647	      8.42141853	     41.11651209	     78.65067935	      0.00000000	      0.00000000	     10.75939789	    -26.03569811	     27.53630160	     53.02801273	     79.08099378	      0.00000000	      0.00000000
      1.00400000	     18.56958353	      3.79911399	      4.13353041	      1.49652464	      0.96829926	     -0.33918009	      6.08314266	     -5.85228406	    -11.27253692	     20.38753731	      0.35582965	     -8.47943796	      0.00000000	      0.00000000	    -29.30363886	      4.72563852	      2.82280135	      9.70295276	      0.16934847	     -3.56792146	      0.00000000	      0.00000000	    -32.86824408	     -1.77943740	     -8.47500997	      1.01836664	    -15.19231721	      8.02124026	     41.04456358	     78.66478348	      0.00000000	      0.00000000	     11.04368136	    -26.04457085	     27.82553460	     53.13055270	     78.87132100	      0.00000000	      0.00000000
      1.00800000	     18.22878197	      3.86619508	      4.03614438	      1.50136429	      0.96669531	     -0.33878860	      6.84553749	     -5.89116105	    -11.53366296	     19.67116187	      0.34332654	     -8.49473187	      0.00000000	      0.00000000	    -29.29676502	      4.83537518	      2.63208028	      9.67724713	      0.16889982	     -3.36801589	      0.00000000	      0.00000000	    -32.58434700	     -1.91038166	     -8.48066274	      1.11068679	    -15.10634989	      7.82416839	     40.91732645	     78.63003297	      0.00000000	      0.00000000	     11.18669632	    -26.09868807	     27.82643627	     53.25270078	     78.84451681	      0.00000000	      0.00000000
      1.01200000	     18.02710510	      3.80943603	      4.00409397	      1.50602741	      0.96558284	     -0.33832772	      7.22617048	     -5.67451586	    -11.40356767	     18.40153206	      0.32116732	     -9.13457482	      0.00000000	      0.00000000	    -29.33798680	      4.76216892	      2.50701270	      9.81103101	      0.17123479	     -3.10905587	      0.00000000	      0.00000000	    -32.46828857	     -1.89086021	     -8.43640623	      1.25715153	    -14.88246625	      7.24303408	     40.62813378	     78.54817402	      0.00000000	      0.00000000	     11.45800207	    -26.12864579	     27.93211210	     53.24420605	     78.70005224	      0.00000000	      0.00000000
